<svg xmlns="http://www.w3.org/2000/svg" viewBox="0 0 230 49"><defs><style>.cls-1{fill:#197b30;}</style></defs><path d="M89.43,12.61c.72,0,4.15.21,6.09,2.45a7.3,7.3,0,0,1,1.53,5A7.16,7.16,0,0,1,96,24.42a7.2,7.2,0,0,1-4.07,2.46,9.91,9.91,0,0,1,2.71.76c2.63,1.27,3,3.85,3,6.48,0,2.46-.21,4.91-2.2,6.65s-4.75,1.74-7.25,1.74H76.59V12.61ZM84.85,24.55h1.86a3.74,3.74,0,0,0,1.06-.13,1.89,1.89,0,0,0,1.15-2.11V20.4c0-1.65-.64-2-2.21-2H84.85Zm0,12.24h1.86c1.83,0,2.42-.42,2.42-2.29v-2c0-1.74-.55-2.29-2.33-2.29h-2Z"/><path d="M154.33,33.32c0,2.58,0,5.08-2.07,7-2.16,2.08-5.42,2.63-8.3,2.63-5.47,0-8.64-1.65-9.91-3.9-1-1.78-1-3.77-1.06-5.71V22.05c0-3.13,0-6,2.88-8,1.44-1,3.77-1.91,7.75-1.91.38,0,7.79-.25,9.95,4.32a12.94,12.94,0,0,1,.76,5.38ZM141.46,35c0,.84,0,2.24,2.2,2.24s2.2-1.4,2.2-2.28V20.06c0-1,0-2.2-2.24-2.2s-2.16,1.35-2.16,2.24Z"/><path d="M199.05,36.83h7.75v5.68H190.7V12.61h8.35Z"/><path d="M230,18.41h-7.92v6.05h7.33v5.72h-7.33v6.57H230v5.76H213.65V12.61H230Z"/><path class="cls-1" d="M40.4,48.39A21.77,21.77,0,1,1,62.17,26.62,21.8,21.8,0,0,1,40.4,48.39Zm0-35.29A13.52,13.52,0,1,0,53.92,26.62,13.54,13.54,0,0,0,40.4,13.1Z"/><path d="M41.05,45.92H0V16.55L20.53,0,41.05,16.55ZM8.25,37.67H32.8V20.49L20.53,10.6,8.25,20.49Z"/><path class="cls-1" d="M40.4,48.39A21.8,21.8,0,0,1,18.63,26.62a4.13,4.13,0,0,1,8.25,0,13.52,13.52,0,0,0,27,0,4.13,4.13,0,0,1,8.25,0A21.79,21.79,0,0,1,40.4,48.39Z"/><path d="M183.06,22.94V21.88a12.94,12.94,0,0,0-.76-5.38c-2.16-4.57-9.58-4.32-10-4.32-4,0-6.31.89-7.75,1.91-2.83,2-2.88,4.83-2.88,8V33.32c0,1.94,0,3.93,1.06,5.71,1.27,2.25,4.45,3.9,9.91,3.9,2.88,0,6.14-.55,8.3-2.63,2-1.9,2.08-4.4,2.08-7V26.88H172V30.5h2.59v4.43c0,.88,0,2.28-2.2,2.28s-2.21-1.4-2.21-2.24V20.1c0-.89,0-2.24,2.16-2.24s2.25,1.23,2.25,2.2v2.88Z"/><path d="M117.29,33.29v9.22H125V35.23c0-2.12.05-4.61-1.48-5.84a7.14,7.14,0,0,0-3.68-1.31,12.82,12.82,0,0,0,1.44-.38,5.51,5.51,0,0,0,2-1.23c1.52-1.48,1.65-3.26,1.65-5.21s-.13-4.84-1.4-6.28a7.28,7.28,0,0,0-5-2.25c-1.52-.12-3.05-.12-4.62-.12h-9.14v29.9h8.51V31.26h2.16C116.91,31.26,117.29,31.81,117.29,33.29Zm-4.11-14.75h2.24c.22,0,1.49-.13,1.78,1.05a24.92,24.92,0,0,1,.13,2.94c0,1.44,0,2.33-.64,2.75a2.1,2.1,0,0,1-1.35.3h-2.16Z"/></svg>
